<svg width="512" height="512" viewBox="0 0 512 512" fill="none" xmlns="http://www.w3.org/2000/svg">
  <defs>
    <linearGradient id="bg" x1="72" y1="64" x2="440" y2="448" gradientUnits="userSpaceOnUse">
      <stop offset="0" stop-color="#2563EB"/>
      <stop offset="1" stop-color="#14B8A6"/>
    </linearGradient>
    <linearGradient id="folder" x1="128" y1="180" x2="384" y2="384" gradientUnits="userSpaceOnUse">
      <stop offset="0" stop-color="#F8FAFC" stop-opacity="0.95"/>
      <stop offset="1" stop-color="#E2E8F0" stop-opacity="0.9"/>
    </linearGradient>
    <filter id="shadow" x="0" y="0" width="512" height="512" filterUnits="userSpaceOnUse" color-interpolation-filters="sRGB">
      <feOffset dy="16"/>
      <feGaussianBlur stdDeviation="24"/>
      <feColorMatrix type="matrix" values="0 0 0 0 0.0588 0 0 0 0 0.0902 0 0 0 0 0.1607 0 0 0 0.25 0"/>
      <feBlend mode="normal" in2="SourceGraphic" result="effect1_dropShadow"/>
    </filter>
  </defs>
  <rect x="56" y="48" width="400" height="400" rx="96" fill="url(#bg)"/>
  <g filter="url(#shadow)">
    <path d="M148 192h72l36 36h108c22 0 40 18 40 40v88c0 22-18 40-40 40H148c-22 0-40-18-40-40V232c0-22 18-40 40-40z" fill="url(#folder)"/>
  </g>
  <path d="M172 274c0-6.6 5.4-12 12-12h144c6.6 0 12 5.4 12 12s-5.4 12-12 12H184c-6.6 0-12-5.4-12-12zm0 64c0-6.6 5.4-12 12-12h92c6.6 0 12 5.4 12 12s-5.4 12-12 12h-92c-6.6 0-12-5.4-12-12z" fill="#1E293B" fill-opacity="0.55"/>
  <circle cx="356" cy="212" r="22" fill="#22D3EE"/>
</svg>
